<?xml version="1.0" standalone="no"?>
<!DOCTYPE svg PUBLIC "-//W3C//DTD SVG 20010904//EN"
 "http://www.w3.org/TR/2001/REC-SVG-20010904/DTD/svg10.dtd">
<svg version="1.0" xmlns="http://www.w3.org/2000/svg"
 width="700.000000pt" height="700.000000pt" viewBox="0 0 700.000000 700.000000"
 preserveAspectRatio="xMidYMid meet">
<g transform="translate(0.000000,700.000000) scale(0.100000,-0.100000)"
fill="#000000" stroke="none">
<path d="M3278 6995 c-1 -1 -42 -5 -89 -9 -47 -4 -95 -8 -105 -10 -10 -2 -46
-7 -79 -11 -33 -4 -67 -9 -75 -11 -8 -2 -31 -6 -50 -9 -19 -3 -60 -10 -90 -16
-30 -6 -66 -13 -80 -16 -76 -15 -295 -82 -415 -126 -333 -124 -640 -297 -919
-519 -128 -102 -334 -307 -435 -433 -23 -29 -45 -55 -48 -58 -3 -3 -30 -39
-60 -80 -30 -41 -58 -79 -63 -85 -38 -47 -193 -306 -245 -412 -82 -166 -170
-387 -209 -525 -3 -11 -12 -42 -20 -70 -13 -47 -17 -62 -32 -140 -3 -16 -8
-39 -10 -50 -2 -11 -7 -40 -11 -65 -4 -25 -8 -47 -10 -50 -1 -3 -6 -34 -9 -70
-4 -36 -9 -76 -11 -90 -6 -32 -6 -459 0 -500 2 -16 7 -57 11 -90 4 -33 8 -67
10 -75 2 -8 6 -35 10 -60 3 -25 8 -52 10 -60 2 -8 7 -31 10 -50 12 -71 65
-275 96 -370 91 -279 242 -591 401 -825 42 -62 188 -256 197 -262 3 -3 28 -32
55 -65 139 -167 362 -371 548 -500 152 -106 162 -112 300 -191 180 -103 446
-217 650 -279 117 -35 298 -80 365 -89 14 -2 45 -8 70 -13 25 -6 74 -13 110
-16 36 -4 76 -8 90 -11 32 -5 526 -5 575 1 19 2 58 7 85 10 77 9 95 12 165 24
36 6 72 12 80 14 8 2 29 6 45 9 154 30 431 117 600 188 517 217 976 573 1300
1008 39 52 72 97 75 100 3 3 19 28 36 55 64 100 159 277 216 400 61 132 149
373 165 455 2 8 13 53 25 100 12 47 24 103 27 125 3 22 8 47 10 55 2 8 7 38 10
65 4 28 8 61 10 75 26 188 26 597 0 760 -2 14 -7 48 -10 75 -4 28 -8 57 -10
65 -2 8 -7 33 -10 55 -8 49 -43 190 -71 285 -89 297 -242 615 -427 885 -85
125 -244 320 -330 405 -27 28 -59 60 -70 72 -72 79 -292 265 -412 349 -191
134 -498 297 -697 371 -14 5 -68 24 -120 42 -134 47 -395 114 -505 131 -16 2
-41 6 -55 9 -14 2 -47 7 -75 10 -27 3 -63 8 -80 11 -35 6 -540 14 -547 9z"/>
</g>
</svg>